<?xml version="1.0" encoding="iso-8859-1"?>
<!-- Generator: Adobe Illustrator 19.0.0, SVG Export Plug-In . SVG Version: 6.00 Build 0)  -->
<svg version="1.1" id="Capa_1" xmlns="http://www.w3.org/2000/svg" xmlns:xlink="http://www.w3.org/1999/xlink" x="0px"
     y="0px"
     viewBox="0 0 404.924 404.924" style="enable-background:new 0 0 404.924 404.924;" xml:space="preserve">
<linearGradient id="SVGID_1_" gradientUnits="userSpaceOnUse" x1="-52.6464" y1="537.8398" x2="-52.6464" y2="596.7689"
                gradientTransform="matrix(8 0 0 -8 623.6332 4723.5137)">
	<stop offset="0" style="stop-color:#111"/>
    <stop offset="1" style="stop-color:black"/>
</linearGradient>
    <path style="fill:url(#SVGID_1_);" d="M402.582,357.259L281.238,235.907c45.821-70.897,25.492-165.516-45.405-211.337
	S70.316-0.922,24.495,69.975S-0.997,235.492,69.9,281.312c50.562,32.678,115.597,32.632,166.113-0.117l121.32,121.312
	c3.124,3.123,8.188,3.123,11.312,0l33.936-33.936C405.705,365.447,405.705,360.383,402.582,357.259L402.582,357.259z M57.51,249.779
	C4.371,196.695,4.326,110.585,57.41,57.446s139.194-53.184,192.333-0.1c46.98,46.931,53.198,120.927,14.711,175.041
	c-4.36,6.204-9.247,12.021-14.608,17.384c-2.667,2.667-5.464,5.232-8.392,7.696s-5.928,4.771-9,6.92
	C178.457,303.112,104.336,296.923,57.51,249.779L57.51,249.779z M362.982,385.539L249.23,271.787
	c0.344-0.28,0.648-0.608,0.992-0.888c3.813-3.084,7.468-6.357,10.952-9.808c3.464-3.464,6.696-7.152,9.792-10.936
	c0.288-0.344,0.616-0.648,0.896-1l113.752,113.76L362.982,385.539z"/>
</svg>
